<svg class="seperator" preserveAspectRatio="none" xmlns="http://www.w3.org/2000/svg" xmlns:xlink="http://www.w3.org/1999/xlink" version="1.1"><rect x="0" y="0" width="900" height="450" fill="#001220"></rect><path d="M0 209L37.5 232C75 255 150 301 225 320.7C300 340.3 375 333.7 450 314C525 294.3 600 261.7 675 261.7C750 261.7 825 294.3 862.5 310.7L900 327L900 0L862.5 0C825 0 750 0 675 0C600 0 525 0 450 0C375 0 300 0 225 0C150 0 75 0 37.5 0L0 0Z" fill="#f7770f"></path><path d="M0 106L37.5 105.3C75 104.7 150 103.3 225 100.8C300 98.3 375 94.7 450 103.5C525 112.3 600 133.7 675 153C750 172.3 825 189.7 862.5 198.3L900 207L900 0L862.5 0C825 0 750 0 675 0C600 0 525 0 450 0C375 0 300 0 225 0C150 0 75 0 37.5 0L0 0Z" fill="#f7770f"></path></svg>